<!DOCTYPE svg  PUBLIC '-//W3C//DTD SVG 1.1//EN'  'http://www.w3.org/Graphics/SVG/1.1/DTD/svg11.dtd'>
<svg width="512pt" xmlns="http://www.w3.org/2000/svg" height="512pt"><path d="m130 35.6c24-3 45 12.5 65 23.8 37-9 76-9.5 113-1.4 20-10.3 40-25.2 64-22.7 8 18.1 10 39.4 4 58.6 33 31.1 31 80.1 23 120 37-1 74-1 110 8-37-3-74-9-111-6l-3 9c38 2 77 5 114 17-38-7-77-15-115-15-16 38-60 49-96 53 11 9 17 23 18 37 1 22 0 44 0 67-1 13 16 16 19 26-19 10-48-7-43-30-3-21 6-47-7-66-1 22 0 44 0 66-1 12 0 25 9 34 4 4 2 11-4 10-22-2-34-25-31-45v-68h-7v68c3 20-10 44-32 45-6 1-6-7-3-10 9-9 10-22 9-33 0-23 1-45 0-67-13 19-4 45-7 67 3 17-12 31-28 32-5 1-18 1-14-7 8-5 17-11 17-21 1-15 0-29 1-44-25 7-56 3-69-22-6-14-13-29-27.6-37-3.5-2-10.4-9-3.9-12 17.5-4 33.5 11 41.5 26 13 20 41 23 60 12 3-11 9-21 17-28-37-5-79-17-97-53-38.1 1-75.8 6-112 16-0.19-1 0.09-2 0.24-2 35.9-10 72.9-15 110-16l-3-9c-36.7-2-73.2 3-109 6 34.9-8 71.7-9 108-8-12.2-38-12.7-85 17-116-7-20-6-42.9 3-62.4m59 114c-24 0-44 21-48 44-1 20 4 41 20 54 30 23 70 21 106 21 29-1 63 1 85-22 23-26 21-72-10-91-25-13-54-4-80-4-24 1-48-4-73-2m-86 122c-4.6 4 5 8 7 4s-4-5-7-4m12 6c-5 3 3 9 6 5 3-3-3-6-6-5m7 8c-6 3 3 9 6 5 3-3-3-6-6-5m5 11c-1 6 6 5 9 3-1-4-6-6-9-3m7 11c1 4 8 2 9-2-3-1-9-3-9 2m11 4c-6 3 2 9 5 5 4-3-2-7-5-5m37 4c0 6 11 7 9 0-2-2-6-1-9 0m-24 1c-6 3 3 9 6 5 3-3-3-6-6-5m13 0c-5 3 3 9 6 5 4-3-3-7-6-5z" fill="#ffe"/><path d="m91.1 300c0.1-6 2.7-12 4.3-17 1.4 6 4 11 4.1 17-0.3 5-8.1 4-8.4 0z" fill="#ffe"/><path d="m252 379h7c-3 20 9 43 31 45 6 1 8-6 4-10-9-9-10-22-9-34h7c-5 23 24 40 43 30-3-10-20-13-19-26 27 4 55 10 76 28 15 13 5 34-11 41-45 25-98 27-148 25-37-3-77-8-107-31-13-8-14-27-1-36 19-16 45-22 69-26 0 10-9 16-17 21-4 8 9 8 14 7 16-1 31-15 28-32h7c1 11 0 24-9 33-3 3-3 11 3 10 22-1 35-25 32-45z" fill="#ffe"/></svg>
