<!DOCTYPE svg  PUBLIC '-//W3C//DTD SVG 1.0//EN'  'http://www.w3.org/TR/2001/REC-SVG-20010904/DTD/svg10.dtd'>
<svg xmlns="http://www.w3.org/2000/svg" height="63.9px" width="100px"><path d="m24.5 23.9h-24.2c0.458 2.18 1.56 3.9 3.62 4.64h17.4c1.8-0.9 2.7-2.7 3.2-4.6z" fill="#ffe"/><path d="m78.8 28.5h17.4c2.05-0.73 3.16-2.46 3.62-4.64h-24.3c0.5 1.9 1.4 3.7 3.3 4.6z" fill="#ffe"/><path d="m66.3 20.6v-5.1c2.82 0.422 5.19 0.979 6.26 1.71 1.2 0.814 1.73 2.34 2.18 4.04h25.2c0.023-4.96-2.19-10.9-4.11-13.2-7.5-8.77-45.9-7.98-45.9-7.98s-38.4-0.788-45.9 8.08c-1.91 2.3-4.12 8.2-4.1 13.2h25.2c0.454-1.7 0.977-3.23 2.18-4.04 1.07-0.728 3.44-1.28 6.26-1.71v5.1l-6.85 7.83-9.98 24.6v7.92c0 1.58 1.28 2.85 2.85 2.85h60.7c1.58 0 2.85-1.28 2.85-2.85v-7.92l-10-24.6-6.9-7.9zm-16.3-6.3s6.83 0.172 13.1 0.851l-2.22 4.79h-21.8l-2.22-4.79c6.3-0.7 13.1-0.9 13.1-0.9zm0 38.5c-7.4 0-13.4-6-13.4-13.4s6-13.4 13.4-13.4 13.4 6 13.4 13.4c0 7.4-6 13.4-13.4 13.4z" fill="#ffe"/></svg>
