<!DOCTYPE svg  PUBLIC '-//W3C//DTD SVG 1.1//EN'  'http://www.w3.org/Graphics/SVG/1.1/DTD/svg11.dtd'>
<svg xmlns="http://www.w3.org/2000/svg" height="32px" width="32px"><path d="m20.1 0c-6.5 0-11.8 5.32-11.8 11.9 0 1.56 0.32 3.05 0.867 4.42l-9.17 9.1 6.57 6.6 9.15-9.15c1.37 0.555 2.85 0.875 4.42 0.875 6.54 0 11.9-5.32 11.9-11.9 0-6.48-5.3-11.8-11.9-11.8zm-13.5 26.4c-0.432-0.438-0.494-0.492-0.922-0.922 1.27-1.27 3.83-3.84 5.69-5.69 0.289 0.328 0.596 0.633 0.914 0.922-1.8 1.8-4.36 4.4-5.63 5.7zm13.5-6.7c-4.34 0-7.87-3.53-7.87-7.86 0-4.34 3.53-7.87 7.87-7.87 4.33 0 7.86 3.53 7.86 7.87 0 4.4-3.5 7.9-7.9 7.9z" fill="#ffe"/></svg>
