<!DOCTYPE svg  PUBLIC '-//W3C//DTD SVG 1.0//EN'  'http://www.w3.org/TR/2001/REC-SVG-20010904/DTD/svg10.dtd'>
<svg xmlns="http://www.w3.org/2000/svg" height="99.9px" width="35.3px"><path d="m22 0c-4.6 0.534-21.7 8.35-22.2 48.7-0.516 42.4 17.6 51.4 22.3 51.3v-28.1c-3.89-0.02-4.68-4.28-5.6-13.1-0.568-5.83-0.741-13 0-20.2 0.56-5.03 1.49-9.93 5.6-9.94l-0.1-28.7z"/><path d="m32.2 100c1.83-0.023 3.13-1.5 3.13-3.18 0 0 0.004-21.8 0-21.8 0.004-1.75-1.4-3.12-3.13-3.13h-7.92v28.1h7.9z"/><path d="m32.2 28.7c1.83 0.005 3.13-1.47 3.13-3.13 0 0 0.004-22.5 0-22.5 0-1.72-1.4-3.09-3.1-3.1h-7.92v28.7s7.9 0.1 7.9 0z"/></svg>
