<?xml version="1.0" encoding="UTF-8" ?>
<!DOCTYPE svg PUBLIC "-//W3C//DTD SVG 1.1//EN" "http://www.w3.org/Graphics/SVG/1.1/DTD/svg11.dtd">
<svg width="512pt" height="512pt" viewBox="0 0 512 512" version="1.1" xmlns="http://www.w3.org/2000/svg">
<path fill="#ffe" d=" M 129.63 35.62 C 153.73 32.55 175.20 48.09 195.18 59.42 C 231.99 50.36 270.87 49.88 307.92 58.00 C 327.63 47.68 348.11 32.85 371.62 35.31 C 379.99 53.37 381.52 74.72 376.21 93.93 C 408.76 124.70 407.42 173.53 398.64 213.99 C 435.51 212.89 473.18 213.46 509.11 222.23 C 472.34 218.61 434.85 213.42 397.56 216.41 C 396.70 219.27 395.80 222.11 394.90 224.95 C 433.08 226.86 472.24 229.68 508.54 242.11 C 470.78 234.84 432.36 227.10 393.52 227.32 C 377.95 264.83 334.27 276.01 297.70 280.04 C 308.69 289.14 315.47 302.69 315.95 316.98 C 316.75 339.19 316.02 361.45 316.29 383.67 C 314.90 397.31 331.88 400.48 334.51 410.41 C 316.03 419.73 287.35 403.24 291.93 380.35 C 289.36 358.69 298.42 333.32 285.13 314.35 C 284.18 336.25 284.97 358.19 284.73 380.10 C 284.22 391.95 285.25 405.04 293.82 414.12 C 297.86 417.59 296.33 425.40 290.01 423.52 C 268.24 422.14 256.19 399.14 259.01 379.19 C 259.04 356.49 258.59 333.79 258.61 311.09 C 256.53 311.10 254.46 311.10 252.39 311.09 C 252.42 333.79 251.95 356.49 252.01 379.19 C 254.94 399.46 242.20 422.91 219.99 423.56 C 213.97 424.72 213.68 417.14 217.18 414.12 C 225.61 405.17 226.78 392.29 226.28 380.59 C 226.03 358.24 226.81 335.85 225.88 313.51 C 212.54 332.97 221.67 358.76 219.05 380.88 C 221.85 397.94 207.12 411.99 190.77 412.64 C 186.10 413.80 173.25 414.11 177.25 406.33 C 185.06 401.16 194.09 395.19 194.30 384.60 C 195.25 370.19 194.43 355.73 194.75 341.30 C 170.34 347.76 138.82 343.50 125.68 319.32 C 119.67 304.93 112.57 289.69 98.45 281.56 C 94.93 279.53 87.96 273.16 94.46 270.47 C 112.49 266.28 128.32 280.91 136.36 295.65 C 148.57 315.59 176.59 319.10 195.84 307.95 C 198.94 297.12 204.60 287.15 213.43 279.94 C 176.20 275.49 134.32 262.88 115.62 227.29 C 77.87 228.16 40.20 233.31 3.67 242.88 C 3.81 242.29 4.09 241.10 4.24 240.51 C 40.13 231.03 77.14 226.21 114.21 225.01 C 113.05 222.06 111.88 219.13 110.74 216.19 C 74.32 213.73 37.78 218.63 1.88 222.29 C 36.91 213.50 73.70 213.10 109.68 213.85 C 97.80 175.70 97.28 128.68 126.77 98.11 C 119.52 78.00 121.17 55.08 129.63 35.62 M 189.45 149.56 C 165.09 149.70 144.69 170.71 141.32 194.06 C 139.56 213.65 144.82 235.45 160.57 248.41 C 190.66 271.40 231.17 268.65 267.00 269.26 C 296.06 268.21 330.22 269.59 352.35 247.36 C 374.65 221.35 373.20 174.68 341.97 156.02 C 317.19 143.27 288.47 151.92 262.01 151.69 C 237.77 152.78 213.66 148.18 189.45 149.56 M 103.44 272.37 C 98.45 276.17 108.05 280.22 110.14 275.86 C 111.93 271.97 105.98 270.77 103.44 272.37 M 115.43 278.41 C 109.80 281.07 117.77 286.75 120.97 282.92 C 124.01 279.63 118.25 276.55 115.43 278.41 M 122.48 286.50 C 116.46 289.31 124.91 294.91 128.01 290.93 C 130.88 287.62 125.20 284.98 122.48 286.50 M 126.88 297.19 C 125.54 302.61 132.72 301.83 135.73 300.08 C 135.20 295.72 129.90 294.23 126.88 297.19 M 133.60 307.93 C 135.49 312.33 142.27 310.50 142.72 305.96 C 139.83 304.62 133.76 303.04 133.60 307.93 M 145.38 312.28 C 139.37 314.62 146.80 320.64 150.27 317.12 C 153.99 314.27 148.40 310.47 145.38 312.28 M 182.48 315.98 C 181.77 322.11 192.71 322.55 191.11 316.25 C 188.60 314.05 185.30 315.30 182.48 315.98 M 158.41 317.36 C 152.44 320.13 160.78 325.77 163.95 321.87 C 166.90 318.60 161.19 315.69 158.41 317.36 M 171.46 317.45 C 165.96 320.44 173.85 325.55 176.96 321.92 C 180.54 318.91 174.20 315.48 171.46 317.45 Z" />
<path fill="#ffe" d=" M 91.07 299.79 C 91.21 293.93 93.78 288.44 95.42 282.88 C 96.80 288.54 99.39 294.05 99.53 299.94 C 99.24 304.82 91.41 304.48 91.07 299.79 Z" />
<path fill="#ffe" d=" M 252.01 379.19 C 254.34 379.19 256.67 379.20 259.01 379.19 C 256.19 399.14 268.24 422.14 290.01 423.52 C 296.33 425.40 297.86 417.59 293.82 414.12 C 285.25 405.04 284.22 391.95 284.73 380.10 C 287.13 380.19 289.53 380.29 291.93 380.35 C 287.35 403.24 316.03 419.73 334.51 410.41 C 331.88 400.48 314.90 397.31 316.29 383.67 C 342.69 388.23 370.99 394.14 391.66 412.34 C 407.05 424.84 396.72 446.44 381.31 453.31 C 336.33 477.62 282.99 479.64 232.96 477.75 C 196.05 474.57 156.11 470.31 125.55 447.42 C 112.92 438.94 112.37 419.70 124.87 410.84 C 144.42 394.95 169.92 388.58 194.30 384.60 C 194.09 395.19 185.06 401.16 177.25 406.33 C 173.25 414.11 186.10 413.80 190.77 412.64 C 207.12 411.99 221.85 397.94 219.05 380.88 C 221.46 380.76 223.87 380.66 226.28 380.59 C 226.78 392.29 225.61 405.17 217.18 414.12 C 213.68 417.14 213.97 424.72 219.99 423.56 C 242.20 422.91 254.94 399.46 252.01 379.19 Z" />
</svg>
