<?xml version="1.0" encoding="UTF-8" standalone="no"?>
<!-- Created with Inkscape (http://www.inkscape.org/) -->

<svg
   xmlns:dc="http://purl.org/dc/elements/1.1/"
   xmlns:cc="http://creativecommons.org/ns#"
   xmlns:rdf="http://www.w3.org/1999/02/22-rdf-syntax-ns#"
   xmlns:svg="http://www.w3.org/2000/svg"
   xmlns="http://www.w3.org/2000/svg"
   version="1.1"
   width="2048"
   height="2048"
   id="svg2">
  <defs
     id="defs4" />
  <metadata
     id="metadata7">
    <rdf:RDF>
      <cc:Work
         rdf:about="">
        <dc:format>image/svg+xml</dc:format>
        <dc:type
           rdf:resource="http://purl.org/dc/dcmitype/StillImage" />
        <dc:title></dc:title>
      </cc:Work>
    </rdf:RDF>
  </metadata>
  <g
     transform="translate(0,998)"
     id="layer1"
     style="display:inline">
    <g
       transform="matrix(4.06,0,0,4.62,-14.9,-1160)"
       id="g3066">
      <path
         d="m 91.1,300 c 0.1,-6 2.7,-12 4.3,-17 1.4,6 4,11 4.1,17 -0.3,5 -8.1,4 -8.4,0 z"
         id="path3056"
         style="fill:#ffffee" />
      <path
         d="m 252,379 c 2,0 5,0 7,0 -3,20 9,43 31,45 6,1 8,-6 4,-10 -9,-9 -10,-22 -9,-34 2,0 5,0 7,0 -5,23 24,40 43,30 -3,-10 -20,-13 -19,-26 27,4 55,10 76,28 15,13 5,34 -11,41 -45,25 -98,27 -148,25 -37,-3 -77,-8 -107,-31 -13,-8 -14,-27 -1,-36 19,-16 45,-22 69,-26 0,10 -9,16 -17,21 -4,8 9,8 14,7 16,-1 31,-15 28,-32 2,0 5,0 7,0 1,11 0,24 -9,33 -3,3 -3,11 3,10 22,-1 35,-25 32,-45 z"
         id="path3058"
         style="fill:#ffffee" />
      <path
         d="m 450,243 c -19,-3 -37,-4 -53,-5 l -3,0 c 0,-2 1,-2 1,-2 0,-1 0,-1 0,-3 0,0 0,-2 2,-5 3,1 9,1 16,1 23,0 48,2 66,4 11,2 14,2 6,0 -8,-1 -30,-4 -49,-5 -11,0 -30,-1 -39,0 0,-3 0,-4 0,-6 1,-7 3,-14 3,-27 0,-23 -2,-29 -10,-43 -3,-6 -8,-11 -11,-15 3,-10 3,-26 -1,-39.9 -3,-11.3 -3,-12 -16,-9.7 -10,1.8 -17,4.3 -28,8.7 -5,2.3 -12,5.9 -16,7.9 -13,-4 -26,-6.2 -40,-7.6 -12,-1.4 -47,-0.6 -60,1.4 -11,1.9 -22,4.2 -31,7.2 -5,-3 -13,-6.4 -18,-8.6 -10,-4.4 -18,-6.9 -27,-8.8 -12,-2.2 -13,-1.5 -17,9.9 -4,13.5 -4,29.5 0,39.5 0,2 0,2 2,3 -17,18 -23,39 -19,67 1,7 2,14 4,21 -10,0 -25.1,0 -36,0 -18.4,1 -41.3,4 -49,5 -7.8,2 -4.3,2 6,0 17.5,-2 43,-4 67,-4 5,0 9,0 13,0 1,3 2,6 4,10 l 0,0 c -16,0 -36.1,1 -55.3,4 -14.2,3 -35.2,7 -37.6,9 -2.5,1 0,0 10.6,-2 19.9,-5 46,-8 78.3,-11 l 4,0 c 7,14 17,25 33,33 9,6 24,12 32,12 1,0 8,1 12,2 5,2 16,3 23,4 h 1 c -1,0 -1,0 -1,0 -8,5 -15,10 -18,20 -1,1 -5,1 -6,3 -10,1 -13,2 -21,2 -9,0 -11,0 -16,-2 -8,-3 -15,-9 -19,-16 -8,-11 -22,-19 -33,-19 -10,0 -11.9,3 -5,8 11,7 19,16 22,21 2,4 5,8 6,11 2,4 6,9 9,11 8,7 16,10 28,11 8,2 10,2 19,0 5,0 8,0 13,-1 0,4 0,7 0,13 0,23 -2,32 -2,34 -3,5 -7,9 -12,11 -3,2 -5,5 -3,6 1,1 3,1 9,1 13,-1 22,-5 27,-12 2,-3 2,-7 3,-32 0,-28 0,-31 2,-35 1,-1 3,-4 4,-5 2,0 2,1 2,34 0,35 0,41 -5,48 0,1 -3,2 -3,4 -3,1 -3,5 -1,7 1,3 14,-2 20,-6 11,-8 13,-15 13,-62 l 0,-28 5,1 3,0 0,36 c 1,41 1,42 9,50 5,5 8,7 16,9 9,3 13,-2 6,-9 -8,-8 -8,-11 -8,-55 2,-29 2,-29 4,-28 4,4 4,10 4,38 0,33 2,36 16,41 6,3 8,4 16,4 8,0 9,-1 9,-2 0,-2 -1,-3 -4,-5 -7,-2 -10,-6 -11,-11 -2,-2 -2,-14 -4,-37 0,-34 0,-35 -1,-40 -3,-7 -10,-13 -14,-17 -2,0 -4,-2 -7,-2 3,0 5,0 8,-1 25,-3 38,-5 49,-8 22,-9 36,-21 44,-38 2,-3 2,-4 4,-4 l 6,0 c 31,3 58,6 79,10 9,3 13,3 9,1 -1,0 -23,-4 -38,-7 z m -94,0 c -4,7 -15,15 -22,20 -8,4 -21,5 -35,7 -11,1 -67,1 -76,1 -30,-3 -46,-8 -59,-18 -12,-10 -18,-24 -16,-40 0,-10 3,-17 10,-24 6,-7 14,-11 22,-14 7,-1 29,-1 57,0 13,0 22,0 35,0 30,-1 50,-1 57,0 12,3 22,11 28,24 3,4 3,7 5,14 0,11 -2,22 -6,30 z M 206,197 c -18,-2 -27,23 -15,35 7,7 13,8 19,4 7,-4 10,-9 10,-18 0,-11 -5,-19 -14,-21 z m 102,2 c -16,-3 -27,22 -12,36 6,5 11,7 17,3 6,-3 11,-10 11,-18 0,-12 -6,-20 -16,-21 z m -46,50 c 0,1 -1,3 -3,3 -4,2 -8,1 -12,-3 -4,-2 -5,-3 -5,0 -2,1 3,7 8,8 3,1 6,1 11,0 3,-3 6,-5 6,-8 0,-3 -3,-3 -5,0 z m -4,-9 c 3,-1 3,-5 1,-8 -3,-1 -8,-1 -9,1 -3,3 -2,5 0,7 3,2 6,2 8,0 z"
         id="path3124"
         style="fill:#333333;stroke:none" />
      <path
         d="M 3.67,35 508,35 508,478 3.67,478 z"
         id="rect3126"
         style="opacity:0;fill:#000000;stroke:#000000;stroke-width:3.692" />
    </g>
  </g>
</svg>
