<?xml version="1.0" encoding="UTF-8" standalone="no"?>
<!-- Created with Inkscape (http://www.inkscape.org/) -->

<svg
   xmlns:dc="http://purl.org/dc/elements/1.1/"
   xmlns:cc="http://creativecommons.org/ns#"
   xmlns:rdf="http://www.w3.org/1999/02/22-rdf-syntax-ns#"
   xmlns:svg="http://www.w3.org/2000/svg"
   xmlns="http://www.w3.org/2000/svg"
   xmlns:sodipodi="http://sodipodi.sourceforge.net/DTD/sodipodi-0.dtd"
   xmlns:inkscape="http://www.inkscape.org/namespaces/inkscape"
   width="2048"
   height="2048"
   id="svg2"
   version="1.1"
   inkscape:version="0.48.2 r9819">
  <sodipodi:namedview
     id="base"
     pagecolor="#ffffff"
     bordercolor="#666666"
     borderopacity="1.0"
     inkscape:pageopacity="0.0"
     inkscape:pageshadow="2"
     inkscape:zoom="0.35"
     inkscape:cx="662"
     inkscape:cy="1.13e+003"
     inkscape:document-units="px"
     inkscape:current-layer="layer1"
     showgrid="true"
     width="2048px"
     inkscape:window-width="1680"
     inkscape:window-height="998"
     inkscape:window-x="1592"
     inkscape:window-y="-8"
     inkscape:window-maximized="1"
     showguides="true"
     inkscape:snap-grids="true">
    <inkscape:grid
       spacingy="16px"
       spacingx="16px"
       snapvisiblegridlinesonly="true"
       enabled="true"
       visible="true"
       empspacing="16"
       id="grid2985"
       type="xygrid" />
    <sodipodi:guide
       id="guide5042"
       orientation="0,2048"
       position="0,0" />
    <sodipodi:guide
       id="guide5044"
       orientation="-2048,0"
       position="2048,0" />
    <sodipodi:guide
       id="guide5046"
       orientation="0,-2048"
       position="0,491" />
    <sodipodi:guide
       id="guide5048"
       orientation="2048,0"
       position="0,2048" />
  </sodipodi:namedview>
  <defs
     id="defs4" />
  <metadata
     id="metadata7">
    <rdf:RDF>
      <cc:Work
         rdf:about="">
        <dc:format>image/svg+xml</dc:format>
        <dc:type
           rdf:resource="http://purl.org/dc/dcmitype/StillImage" />
      </cc:Work>
    </rdf:RDF>
  </metadata>
  <g
     transform="translate(0,998)"
     id="layer1"
     inkscape:groupmode="layer"
     inkscape:label="Layer 1">
    <path
       d="M943.0 577.0L931.0 577.0L931.0 540.0L919.0 466.0L915.0 457.0L915.0 517.0L915.0 573.0L907.0 573.0L854.0 568.0L846.0 517.0L842.0 466.0L809.0 434.0L797.0 425.0L801.0 411.0L801.0 406.0L809.0 383.0L838.0 351.0L846.0 281.0L846.0 221.0L838.0 221.0L801.0 226.0L708.0 212.0L655.0 166.0L639.0 129.0L582.0 64.3L562.0 36.6L602.0 32.0L679.0 87.4L732.0 138.0L781.0 147.0L826.0 138.0L846.0 134.0L854.0 115.0L886.0 68.9L870.0 55.1L744.0 22.7L639.0 -60.4L627.0 -83.5L505.0 -69.7L354.0 -46.6L318.0 -42.0L358.0 -55.8L590.0 -88.2L623.0 -88.2L618.0 -102.0L614.0 -111.0L558.0 -111.0L336.0 -92.8L316.0 -92.8L378.0 -107.0L545.0 -116.0L610.0 -120.0L602.0 -144.0L598.0 -315.0L639.0 -402.0L655.0 -421.0L651.0 -439.0L659.0 -569.0L663.0 -587.0L679.0 -587.0L826.0 -536.0L846.0 -522.0L870.0 -527.0L1130.0 -532.0L1160.0 -527.0L1190.0 -541.0L1310.0 -587.0L1340.0 -587.0L1340.0 -573.0L1350.0 -449.0L1350.0 -435.0L1370.0 -412.0L1420.0 -287.0L1410.0 -125.0L1410.0 -116.0L1480.0 -116.0L1650.0 -107.0L1710.0 -92.8L1690.0 -92.8L1460.0 -111.0L1410.0 -107.0L1400.0 -97.4L1400.0 -88.2L1440.0 -88.2L1670.0 -55.8L1710.0 -42.0L1670.0 -46.6L1440.0 -78.9L1390.0 -78.9L1380.0 -55.8L1310.0 8.86L1140.0 59.7L1130.0 59.7L1140.0 68.9L1170.0 115.0L1180.0 235.0L1190.0 351.0L1220.0 383.0L1230.0 406.0L1230.0 411.0L1230.0 425.0L1220.0 434.0L1190.0 466.0L1180.0 522.0L1180.0 568.0L1150.0 573.0L1120.0 573.0L1110.0 577.0L1110.0 517.0L1120.0 457.0L1110.0 466.0L1090.0 540.0L1090.0 577.0L1090.0 577.0L1050.0 582.0L1020.0 582.0L1020.0 549.0L1030.0 475.0L1080.0 439.0L1090.0 434.0L1070.0 429.0L1030.0 374.0L1020.0 268.0L1020.0 157.0L1020.0 138.0L1010.0 157.0L1000.0 268.0L1000.0 374.0L955.0 429.0L939.0 434.0L951.0 439.0L992.0 475.0L1000.0 549.0L1000.0 582.0L980.0 582.0L943.0 577.0L943.0 577.0M903.0 429.0L911.0 406.0L931.0 258.0L927.0 152.0L915.0 268.0L909.875 360.625L886.0 388.0L862.0 402.0L846.0 411.0L895.0 434.0L903.0 439.0L903.0 429.0L903.0 429.0M1160.0 420.0L1180.0 411.0L1170.0 402.0L1140.0 388.0L1117.5 360.625L1110.0 268.0L1110.0 166.0L1092.5 158.375L1090.0 258.0L1120.0 406.0L1130.0 429.0L1130.0 439.0L1130.0 434.0L1160.0 420.0L1160.0 420.0M756.0 171.0L756.0 157.0L740.0 166.0L756.0 171.0L756.0 171.0M793.0 171.0L793.0 157.0L777.0 166.0L793.0 171.0L793.0 171.0M838.0 157.0L817.0 152.0L826.0 166.0L838.0 157.0L838.0 157.0M720.0 157.0L720.0 147.0L704.0 152.0L716.0 157.0L720.0 157.0L720.0 157.0M700.0 134.0L687.0 124.0L679.0 134.0L700.0 134.0L700.0 134.0M679.0 111.0L667.0 101.0L659.0 111.0L679.0 111.0L679.0 111.0M663.0 82.8L655.0 78.2L647.0 87.4L663.0 82.8L663.0 82.8M639.0 64.3L639.0 55.1L623.0 59.7L639.0 64.3L639.0 64.3M610.0 45.8L594.0 41.2L602.0 50.4L610.0 45.8L610.0 45.8M1160.0 22.7L1266.25 -14.2525L1320.0 -92.8L1320.0 -144.0L1310.0 -199.0L1260.0 -259.0L1205.0 -282.5L1090.0 -282.0L931.0 -282.0L793.0 -278.0L732.625 -236.875L700.0 -171.0L720.0 -65.1L788.25 -3.2625L915.0 27.3L1160.0 22.7L1160.0 22.7M972.0 582.0L724.0 536.0L654.625 497.375L631.0 452.0L651.0 406.0L817.0 342.0L846.0 332.0L846.0 277.0L846.0 221.0L838.0 221.0L797.0 226.0L708.0 212.0L655.0 157.0L614.0 96.6L590.0 73.5L562.0 41.2L594.0 27.3L679.0 92.0L740.0 138.0L826.0 138.0L846.0 134.0L854.0 115.0L886.0 64.3L895.0 59.7L809.0 41.2L679.0 -18.9L631.0 -69.7L631.0 -78.9L590.0 -78.9L355.0 -46.6L318.0 -37.3L355.0 -55.8L574.0 -83.5L623.0 -88.2L618.0 -102.0L610.0 -111.0L537.0 -111.0L347.0 -92.8L315.0 -97.4L428.0 -111.0L541.0 -116.0L610.0 -120.0L602.0 -144.0L598.0 -315.0L643.0 -402.0L655.0 -421.0L651.0 -439.0L647.0 -527.0L659.0 -564.0L671.0 -587.0L826.0 -536.0L846.0 -522.0L882.0 -532.0L1010.0 -541.0L1130.0 -532.0L1160.0 -527.0L1180.0 -541.0L1320.0 -587.0L1350.0 -559.0L1350.0 -449.0L1350.0 -435.0L1360.0 -416.0L1420.0 -301.0L1410.0 -125.0L1410.0 -116.0L1480.0 -116.0L1600.0 -111.0L1720.0 -97.4L1680.0 -92.8L1490.0 -111.0L1410.0 -107.0L1400.0 -97.4L1400.0 -88.2L1440.0 -88.2L1670.0 -55.8L1710.0 -37.3L1670.0 -46.6L1440.0 -78.9L1390.0 -78.9L1390.0 -65.1L1303.75 14.0575L1150.0 55.1L1130.0 59.7L1150.0 73.5L1160.0 96.6L1180.0 235.0L1180.0 332.0L1220.0 337.0L1345.0 375.875L1410.0 429.0L1410.0 475.0L1305.0 541.75L1110.0 577.0L972.0 582.0L972.0 582.0M931.0 235.0L930.0 158.875L923.0 166.0L915.0 249.0L915.0 323.0L923.0 323.0L931.0 323.0L931.0 235.0L931.0 235.0M1110.0 254.0L1100.0 157.0L1090.0 235.0L1090.0 323.0L1100.0 323.0L1110.0 323.0L1110.0 254.0L1110.0 254.0M1020.0 263.0L1020.0 175.0L1020.0 138.0L1020.0 138.0L1010.0 138.0L1010.0 175.0L1000.0 268.0L1000.0 318.0L1020.0 318.0L1020.0 318.0L1020.0 263.0L1020.0 263.0M862.0 -60.4L893.5 -89.9375L907.0 -144.0L895.0 -197.5L862.0 -227.0L802.625 -216.625L777.0 -144.0L817.0 -60.4L862.0 -60.4L862.0 -60.4M821.0 -88.2L801.0 -144.0L809.0 -181.0L826.0 -199.0L870.0 -190.0L885.375 -126.25L846.0 -83.5L821.0 -88.2L821.0 -88.2M1210.0 -60.4L1250.0 -102.0L1250.0 -144.0L1230.0 -213.0L1165.0 -228.5L1130.0 -157.0L1135.0 -100.0375L1170.0 -60.4L1210.0 -60.4L1210.0 -60.4M1170.0 -92.8L1150.0 -144.0L1180.0 -204.0L1210.0 -199.0L1233.75 -149.35L1220.0 -92.8L1190.0 -83.5L1170.0 -92.8L1170.0 -92.8M562.0 115.0L566.0 78.2L570.0 64.3L578.0 87.4L582.0 115.0L562.0 115.0L562.0 115.0"
       style="fill:none;stroke:#000000;stroke-width:4.331;stroke-opacity:1"
       id="path5065" />
  </g>
</svg>
